Coordinates
version=1
nRows=14
nColumns=24
inDegrees=yes

Units are S.I. units (second, meters, Newtons, ...)
Angles are in degrees.

endheader
time	pelvis_tilt	pelvis_list	pelvis_rotation	pelvis_tx	pelvis_ty	pelvis_tz	hip_flexion_r	hip_adduction_r	hip_rotation_r	knee_angle_r	ankle_angle_r	subtalar_angle_r	mtp_angle_r	hip_flexion_l	hip_adduction_l	hip_rotation_l	knee_angle_l	ankle_angle_l	subtalar_angle_l	mtp_angle_l	lumbar_extension	lumbar_bending	lumbar_rotation
      3.89500000	     -8.11578397	     11.52999756	    -10.78611479	     -1.37543573	     -0.02931071	      0.39280558	     16.98873738	    -11.37622177	      6.36820798	    -64.90628933	    -32.94720416	    -26.75521489	      1.67351858	     23.52083280	     11.45223563	      0.38997983	    -20.59698144	     -2.03394697	     -0.42026082	      7.92863316	      8.82864339	     -8.64196520	      9.55730273
      3.90000000	     -8.08642242	     11.35288809	    -10.79544103	     -1.36914901	     -0.02834588	      0.39223908	     17.84281012	    -10.98071966	      6.38631471	    -65.78446037	    -32.22971013	    -27.36977768	      0.63354769	     22.82406539	     11.43312871	      0.55826082	    -20.26747242	     -1.66943729	     -0.33243610	      7.94905100	      8.70072100	     -8.37754822	      9.21846056
      3.90500000	     -8.05381237	     11.16393813	    -10.83082842	     -1.36289329	     -0.02729605	      0.39170787	     18.66558013	    -10.56075531	      6.46727059	    -66.47816735	    -31.56936241	    -27.77651254	      0.46812301	     22.10818209	     11.39500287	      0.74344881	    -19.90496838	     -1.39800208	     -0.31407680	      7.92388941	      8.56949832	     -8.10134050	      8.93654737
      3.91000000	     -8.04525991	     10.90761990	    -10.86252796	     -1.35669550	     -0.02620182	      0.39120850	     19.48063605	    -10.05596990	      6.51368955	    -67.04218864	    -30.98402372	    -28.05854293	      0.46036858	     21.41057075	     11.27758900	      0.92474821	    -19.55083118	     -1.14112501	     -0.29804470	      7.90385622	      8.44334202	     -7.75901408	      8.59642451
      3.91500000	     -8.06850507	     10.56031846	    -10.87402790	     -1.35054351	     -0.02505525	      0.39071811	     20.27486566	     -9.44945221	      6.50063575	    -67.46083257	    -30.39404102	    -28.14972890	      0.60687259	     20.73192974	     11.06331577	      1.15597988	    -19.21228903	     -0.87982619	     -0.27677075	      7.87685284	      8.32510477	     -7.32237366	      8.25599221
      3.92000000	     -8.11730420	     10.13934063	    -10.77483482	     -1.34439781	     -0.02386803	      0.39012768	     21.01267719	     -8.80105628	      6.37700175	    -67.72380760	    -29.67289602	    -27.86611384	      1.16873505	     20.07108555	     10.79912477	      1.48324275	    -18.90681773	     -0.58260538	     -0.16141989	      7.81506215	      8.20466013	     -6.82970634	      7.75524809
      3.92500000	     -8.18844951	      9.66746488	    -10.71412352	     -1.33829854	     -0.02266869	      0.38957909	     21.74834181	     -8.07749952	      6.27961896	    -67.84861413	    -29.01558967	    -27.50231574	      2.03372203	     19.42296034	     10.46703440	      1.83858067	    -18.59273486	     -0.32402718	     -0.14557301	      7.70109408	      8.09839479	     -6.27507837	      7.34707829
      3.93000000	     -8.28623847	      9.15384633	    -10.63436198	     -1.33223731	     -0.02147782	      0.38902867	     22.47516036	     -7.31416108	      6.14432583	    -67.84567938	    -28.36661685	    -27.03102865	      3.10650918	     18.79977942	     10.08824392	      2.23516604	    -18.28427491	     -0.09032401	     -0.16453740	      7.57848021	      8.00996504	     -5.68128463	      6.94005257
      3.93500000	     -8.40544393	      8.61392039	    -10.53906002	     -1.32620657	     -0.02031241	      0.38848495	     23.19496131	     -6.52778277	      5.97781342	    -67.73097943	    -27.69998969	    -26.45288617	      4.28750349	     18.19748850	      9.67760469	      2.66711133	    -17.97684454	      0.11983310	     -0.21052880	      7.43949111	      7.93681764	     -5.06577798	      6.53280831
      3.94000000	     -8.54183675	      8.05796765	    -10.42846782	     -1.32019574	     -0.01919172	      0.38795344	     23.91105233	     -5.73892652	      5.76010579	    -67.52109920	    -27.01029770	    -25.79585029	      5.43241366	     17.61665990	      9.24389522	      3.10851142	    -17.67334522	      0.31803324	     -0.27775320	      7.29687047	      7.88495207	     -4.44347689	      6.13253924
      3.94500000	     -8.69132162	      7.50448942	    -10.28178714	     -1.31419442	     -0.01813460	      0.38739859	     24.61808376	     -4.97254127	      5.49957058	    -67.22588085	    -26.27022073	    -25.05787494	      6.53895185	     17.05292632	      8.81285799	      3.56369091	    -17.36617500	      0.50738895	     -0.34119384	      7.14998134	      7.84838060	     -3.83164337	      5.72306613
      3.95000000	     -8.84400375	      6.96901294	    -10.11771477	     -1.30819522	     -0.01715220	      0.38684935	     25.31878620	     -4.24424878	      5.20987363	    -66.85909589	    -25.50488964	    -24.27103026	      7.56896297	     16.49524551	      8.39519518	      4.02006723	    -17.04823422	      0.69584543	     -0.39593042	      7.00011109	      7.82744416	     -3.24999001	      5.31452800
      3.95500000	     -9.00092225	      6.45337611	     -9.92344394	     -1.30218933	     -0.01625933	      0.38629114	     26.00967793	     -3.56949801	      4.86082613	    -66.42213101	    -24.71028547	    -23.50232193	      8.46158260	     15.94982887	      7.99361124	      4.44372844	    -16.72485186	      0.88470531	     -0.42862287	      6.86851476	      7.82214045	     -2.70211105	      4.92237951
      3.96000000	     -9.15146619	      5.98369760	     -9.69630540	     -1.29614567	     -0.01544629	      0.38573604	     26.68824746	     -2.97060443	      4.49394526	    -65.92770779	    -23.91576876	    -22.70364242	      9.27657004	     15.39027351	      7.63535428	      4.86818405	    -16.36403127	      1.07180604	     -0.40816116	      6.74771103	      7.83159395	     -2.21785641	      4.49920462
